<?xml version="1.0" encoding="utf-8"?>
<!-- Svg Vector Icons : http://www.onlinewebfonts.com/icon -->
<!DOCTYPE svg PUBLIC "-//W3C//DTD SVG 1.1//EN" "http://www.w3.org/Graphics/SVG/1.1/DTD/svg11.dtd">
<svg version="1.1" xmlns="http://www.w3.org/2000/svg" xmlns:xlink="http://www.w3.org/1999/xlink" x="0px" y="0px" viewBox="0 0 1000 1000" enable-background="new 0 0 1000 1000" xml:space="preserve">
<metadata> Svg Vector Icons : http://www.onlinewebfonts.com/icon </metadata>
<g><g transform="translate(0.000000,511.000000) scale(0.100000,-0.100000)"><path d="M4671.8,469.1L190.1-4012.6L551.5-4374l359.1-359.1L5406.5-237.3L9900,4256.2l-349.6,349.6c-191.4,191.4-359.1,347.3-370.9,347.3C9165.3,4953.2,7138.2,2935.6,4671.8,469.1z"/><path d="M2002.1,3653.8C1291,3526.2,662.6,3058.4,338.9,2413.5C100.3,1940.9,43.6,1407,154.6,665.2C296.4-286.9,745.3-1350,1319.3-2096.6l106.3-137L4326.8,667.6c1597.1,1597.1,2903.5,2910.6,2903.5,2917.7c0,42.5-323.7,80.3-673.3,78c-340.2-2.4-399.3-9.4-588.3-66.1c-593-179.6-1093.8-578.8-1377.3-1093.8l-96.9-179.5l-63.8,127.6c-101.6,200.8-250.4,394.5-451.3,590.6c-288.2,278.8-607.1,460.7-989.9,564.6C2779.4,3665.6,2210,3691.6,2002.1,3653.8z"/><path d="M5652.2-511.3c-1625.4-1625.4-2957.9-2965-2957.9-2974.4c0-28.3,444.1-368.5,722.9-555.2c148.8-96.9,404-245.7,567-328.4l297.7-151.2h207.9c191.4,0,224.4,7.1,408.7,92.1C5938-3948.8,7383.9-2637.6,8005.3-1609.9c713.5,1181.3,1051.3,2698,805.6,3619.4c-33.1,129.9-163,439.4-181.9,439.4C8619.5,2448.9,7280,1116.4,5652.2-511.3z"/></g></g>
</svg>